REM DIRINDEX 1\2,1\3,1\4,1\5,1\6,1\7,1\8
REM DIRNAME cjc150,folder01,folder02,folder03,folder04,folder05,folder06,folder07
TITLE ""
FILE "006 ‚Å‚é•¶56.mp3" MP3
  TRACK 01 AUDIO
    TITLE "8:cjc150_2645"
    INDEX 01 00:00:00
  TRACK 02 AUDIO
    TITLE "0:"
    INDEX 01 00:01:64
  TRACK 03 AUDIO
    TITLE "2:cjc150_2646"
    INDEX 01 00:02:59
  TRACK 04 AUDIO
    TITLE "0:"
    INDEX 01 00:08:56
  TRACK 05 AUDIO
    TITLE "8:cjc150_2647"
    INDEX 01 00:10:12
  TRACK 06 AUDIO
    TITLE "0:"
    INDEX 01 00:12:65
  TRACK 07 AUDIO
    TITLE "3:cjc150_2648"
    INDEX 01 00:13:47
  TRACK 08 AUDIO
    TITLE "3:cjc150_2649"
    INDEX 01 00:15:13
  TRACK 09 AUDIO
    TITLE "3:cjc150_2650"
    INDEX 01 00:16:59
  TRACK 10 AUDIO
    TITLE "3:cjc150_2651"
    INDEX 01 00:18:39
  TRACK 11 AUDIO
    TITLE "3:cjc150_2652"
    INDEX 01 00:20:32
  TRACK 12 AUDIO
    TITLE "3:cjc150_2653"
    INDEX 01 00:22:50
  TRACK 13 AUDIO
    TITLE "3:cjc150_2654"
    INDEX 01 00:24:67
  TRACK 14 AUDIO
    TITLE "3:cjc150_2655"
    INDEX 01 00:27:06
  TRACK 15 AUDIO
    TITLE "8:cjc150_2656"
    INDEX 01 00:29:23
  TRACK 16 AUDIO
    TITLE "0:"
    INDEX 01 00:31:71
  TRACK 17 AUDIO
    TITLE "4:cjc150_2657"
    INDEX 01 00:32:56
  TRACK 18 AUDIO
    TITLE "4:cjc150_2658"
    INDEX 01 00:35:23
  TRACK 19 AUDIO
    TITLE "4:cjc150_2659"
    INDEX 01 00:38:30
  TRACK 20 AUDIO
    TITLE "4:cjc150_2660"
    INDEX 01 00:40:44
  TRACK 21 AUDIO
    TITLE "4:cjc150_2661"
    INDEX 01 00:43:23
  TRACK 22 AUDIO
    TITLE "4:cjc150_2662"
    INDEX 01 00:45:45
  TRACK 23 AUDIO
    TITLE "8:cjc150_2663"
    INDEX 01 00:48:36
  TRACK 24 AUDIO
    TITLE "0:"
    INDEX 01 00:51:28
  TRACK 25 AUDIO
    TITLE "5:cjc150_2664"
    INDEX 01 00:52:12
  TRACK 26 AUDIO
    TITLE "5:cjc150_2665"
    INDEX 01 00:53:57
  TRACK 27 AUDIO
    TITLE "5:cjc150_2666"
    INDEX 01 00:56:06
  TRACK 28 AUDIO
    TITLE "5:cjc150_2667"
    INDEX 01 00:57:48
  TRACK 29 AUDIO
    TITLE "5:cjc150_2668"
    INDEX 01 00:59:06
  TRACK 30 AUDIO
    TITLE "5:cjc150_2669"
    INDEX 01 01:00:41
  TRACK 31 AUDIO
    TITLE "5:cjc150_2670"
    INDEX 01 01:03:16
  TRACK 32 AUDIO
    TITLE "5:cjc150_2671"
    INDEX 01 01:05:01
  TRACK 33 AUDIO
    TITLE "5:cjc150_2672"
    INDEX 01 01:06:55
  TRACK 34 AUDIO
    TITLE "5:cjc150_2673"
    INDEX 01 01:08:72
  TRACK 35 AUDIO
    TITLE "5:cjc150_2674"
    INDEX 01 01:12:05
  TRACK 36 AUDIO
    TITLE "5:cjc150_2675"
    INDEX 01 01:14:27
  TRACK 37 AUDIO
    TITLE "5:cjc150_2676"
    INDEX 01 01:16:36
  TRACK 38 AUDIO
    TITLE "5:cjc150_2677"
    INDEX 01 01:19:27
  TRACK 39 AUDIO
    TITLE "5:cjc150_2678"
    INDEX 01 01:22:29
  TRACK 40 AUDIO
    TITLE "5:cjc150_2679"
    INDEX 01 01:24:45
  TRACK 41 AUDIO
    TITLE "8:cjc150_2680"
    INDEX 01 01:26:62
  TRACK 42 AUDIO
    TITLE "0:"
    INDEX 01 01:29:43
  TRACK 43 AUDIO
    TITLE "6:cjc150_2681"
    INDEX 01 01:30:26
  TRACK 44 AUDIO
    TITLE "6:cjc150_2682"
    INDEX 01 01:32:57
  TRACK 45 AUDIO
    TITLE "6:cjc150_2683"
    INDEX 01 01:36:19
  TRACK 46 AUDIO
    TITLE "6:cjc150_2684"
    INDEX 01 01:38:59
  TRACK 47 AUDIO
    TITLE "6:cjc150_2685"
    INDEX 01 01:41:26
  TRACK 48 AUDIO
    TITLE "6:cjc150_2686"
    INDEX 01 01:43:39
  TRACK 49 AUDIO
    TITLE "6:cjc150_2687"
    INDEX 01 01:46:39
  TRACK 50 AUDIO
    TITLE "6:cjc150_2688"
    INDEX 01 01:48:56
  TRACK 51 AUDIO
    TITLE "6:cjc150_2689"
    INDEX 01 01:50:64
  TRACK 52 AUDIO
    TITLE "6:cjc150_2690"
    INDEX 01 01:53:55
  TRACK 53 AUDIO
    TITLE "6:cjc150_2691"
    INDEX 01 01:56:67
  TRACK 54 AUDIO
    TITLE "6:cjc150_2692"
    INDEX 01 01:59:14
  TRACK 55 AUDIO
    TITLE "8:cjc150_2693"
    INDEX 01 02:00:69
  TRACK 56 AUDIO
    TITLE "0:"
    INDEX 01 02:02:46
  TRACK 57 AUDIO
    TITLE "7:cjc150_2694"
    INDEX 01 02:03:36
  TRACK 58 AUDIO
    TITLE "7:cjc150_2695"
    INDEX 01 02:09:32
  TRACK 59 AUDIO
    TITLE "0:"
    INDEX 01 02:15:74
